<svg xmlns="http://www.w3.org/2000/svg" width="500" height="500"><rect width="500" height="500" x="0" y="0" fill="#FFFFFF" id="background"/><g transform="translate(50,10)" id="viz"><g id="axis"><g transform="translate(0,440)" fill="none" font-size="10" font-family="sans-serif" text-anchor="middle"><path class="domain" stroke="currentColor" d="M0,6V0H400V6"/><g class="tick" opacity="1" transform="translate(0,0)"><line stroke="currentColor" y2="6"/><text fill="currentColor" y="9" dy="0.71em">0</text></g><g class="tick" opacity="1" transform="translate(33.33333333333333,0)"><line stroke="currentColor" y2="6"/><text fill="currentColor" y="9" dy="0.71em">100</text></g><g class="tick" opacity="1" transform="translate(66.66666666666666,0)"><line stroke="currentColor" y2="6"/><text fill="currentColor" y="9" dy="0.71em">200</text></g><g class="tick" opacity="1" transform="translate(100,0)"><line stroke="currentColor" y2="6"/><text fill="currentColor" y="9" dy="0.71em">300</text></g><g class="tick" opacity="1" transform="translate(133.33333333333331,0)"><line stroke="currentColor" y2="6"/><text fill="currentColor" y="9" dy="0.71em">400</text></g><g class="tick" opacity="1" transform="translate(166.66666666666669,0)"><line stroke="currentColor" y2="6"/><text fill="currentColor" y="9" dy="0.71em">500</text></g><g class="tick" opacity="1" transform="translate(200,0)"><line stroke="currentColor" y2="6"/><text fill="currentColor" y="9" dy="0.71em">600</text></g><g class="tick" opacity="1" transform="translate(233.33333333333334,0)"><line stroke="currentColor" y2="6"/><text fill="currentColor" y="9" dy="0.71em">700</text></g><g class="tick" opacity="1" transform="translate(266.66666666666663,0)"><line stroke="currentColor" y2="6"/><text fill="currentColor" y="9" dy="0.71em">800</text></g><g class="tick" opacity="1" transform="translate(300,0)"><line stroke="currentColor" y2="6"/><text fill="currentColor" y="9" dy="0.71em">900</text></g><g class="tick" opacity="1" transform="translate(333.33333333333337,0)"><line stroke="currentColor" y2="6"/><text fill="currentColor" y="9" dy="0.71em">1,000</text></g><g class="tick" opacity="1" transform="translate(366.66666666666663,0)"><line stroke="currentColor" y2="6"/><text fill="currentColor" y="9" dy="0.71em">1,100</text></g><g class="tick" opacity="1" transform="translate(400,0)"><line stroke="currentColor" y2="6"/><text fill="currentColor" y="9" dy="0.71em">1,200</text></g><text x="400" dy="-5" text-anchor="end" style="font-family: Arial, sans-serif; font-size: 12px; fill: rgb(123, 123, 123); font-weight: bold;">TotalPrice</text></g><g fill="none" font-size="10" font-family="sans-serif" text-anchor="end"><path class="domain" stroke="currentColor" d="M0,0V440"/><g class="tick" opacity="1" transform="translate(0,55)"><line stroke="currentColor" x2="400" style="stroke: rgb(204, 204, 204);"/><text fill="currentColor" x="-3" dy="0.32em">North</text></g><g class="tick" opacity="1" transform="translate(0,165)"><line stroke="currentColor" x2="400" style="stroke: rgb(204, 204, 204);"/><text fill="currentColor" x="-3" dy="0.32em">West</text></g><g class="tick" opacity="1" transform="translate(0,275)"><line stroke="currentColor" x2="400" style="stroke: rgb(204, 204, 204);"/><text fill="currentColor" x="-3" dy="0.32em">East</text></g><g class="tick" opacity="1" transform="translate(0,385)"><line stroke="currentColor" x2="400" style="stroke: rgb(204, 204, 204);"/><text fill="currentColor" x="-3" dy="0.32em">South</text></g><text x="4" text-anchor="start" dominant-baseline="hanging" style="font-family: Arial, sans-serif; font-size: 12px; fill: rgb(123, 123, 123); font-weight: bold;">Region</text></g></g><g id="visualization"><g id="North"><g id="circles"><circle id="1" cx="216.66666666666666" cy="55" r="5.25" style="fill: rgb(44, 160, 44);"/><circle id="1" cx="42.91666666666668" cy="55" r="5.25" style="fill: rgb(44, 160, 44);"/><circle id="1" cx="7.333333333333326" cy="55" r="5.25" style="fill: rgb(255, 127, 14);"/><circle id="2" cx="30.41666666666668" cy="55" r="5.25" style="fill: rgb(31, 119, 180);"/></g><g id="labels"><g id="1" transform="translate(216.66666666666666,55)"><text x="0" y="0" text-anchor="middle" dominant-baseline="text-before-edge" transform="translate(0,-5.599999904632568)"><tspan x="0" y="0" dy="0" style="font-family: Arial, sans-serif; font-size: 10px; fill: black; font-weight: bold;">1</tspan></text></g><g id="1" transform="translate(42.91666666666668,55)"><text x="0" y="0" text-anchor="middle" dominant-baseline="text-before-edge" transform="translate(0,-5.599999904632568)"><tspan x="0" y="0" dy="0" style="font-family: Arial, sans-serif; font-size: 10px; fill: black; font-weight: bold;">1</tspan></text></g><g id="1" transform="translate(7.333333333333326,55)"><text x="0" y="0" text-anchor="middle" dominant-baseline="text-before-edge" transform="translate(0,-5.599999904632568)"><tspan x="0" y="0" dy="0" style="font-family: Arial, sans-serif; font-size: 10px; fill: black; font-weight: bold;">1</tspan></text></g><g id="2" transform="translate(30.41666666666668,55)"><text x="0" y="0" text-anchor="middle" dominant-baseline="text-before-edge" transform="translate(0,-5.599999904632568)"><tspan x="0" y="0" dy="0" style="font-family: Arial, sans-serif; font-size: 10px; fill: black; font-weight: bold;">2</tspan></text></g></g></g><g id="West"><g id="circles"><circle id="3" cx="33.87463904918021" cy="167.97999114375133" r="5.25" style="fill: rgb(31, 119, 180);"/><circle id="2" cx="13.699502712335393" cy="160.12347358639676" r="5.25" style="fill: rgb(214, 39, 40);"/><circle id="1" cx="26.054633762313447" cy="158.22787392028619" r="5.25" style="fill: rgb(31, 119, 180);"/><circle id="2" cx="21.519306072389476" cy="169.87592285489248" r="5.25" style="fill: rgb(44, 160, 44);"/><circle id="1" cx="1.344349526677401" cy="162.02042362931388" r="5.25" style="fill: rgb(255, 127, 14);"/><circle id="1" cx="9.164235543770765" cy="171.7723148653593" r="5.25" style="fill: rgb(214, 39, 40);"/></g><g id="labels"><g id="3" transform="translate(33.87463904918021,167.97999114375133)"><text x="0" y="0" text-anchor="middle" dominant-baseline="text-before-edge" transform="translate(0,-5.599999904632568)"><tspan x="0" y="0" dy="0" style="font-family: Arial, sans-serif; font-size: 10px; fill: black; font-weight: bold;">3</tspan></text></g><g id="2" transform="translate(13.699502712335393,160.12347358639676)"><text x="0" y="0" text-anchor="middle" dominant-baseline="text-before-edge" transform="translate(0,-5.599999904632568)"><tspan x="0" y="0" dy="0" style="font-family: Arial, sans-serif; font-size: 10px; fill: black; font-weight: bold;">2</tspan></text></g><g id="1" transform="translate(26.054633762313447,158.22787392028619)"><text x="0" y="0" text-anchor="middle" dominant-baseline="text-before-edge" transform="translate(0,-5.599999904632568)"><tspan x="0" y="0" dy="0" style="font-family: Arial, sans-serif; font-size: 10px; fill: black; font-weight: bold;">1</tspan></text></g><g id="2" transform="translate(21.519306072389476,169.87592285489248)"><text x="0" y="0" text-anchor="middle" dominant-baseline="text-before-edge" transform="translate(0,-5.599999904632568)"><tspan x="0" y="0" dy="0" style="font-family: Arial, sans-serif; font-size: 10px; fill: black; font-weight: bold;">2</tspan></text></g><g id="1" transform="translate(1.344349526677401,162.02042362931388)"><text x="0" y="0" text-anchor="middle" dominant-baseline="text-before-edge" transform="translate(0,-5.599999904632568)"><tspan x="0" y="0" dy="0" style="font-family: Arial, sans-serif; font-size: 10px; fill: black; font-weight: bold;">1</tspan></text></g><g id="1" transform="translate(9.164235543770765,171.7723148653593)"><text x="0" y="0" text-anchor="middle" dominant-baseline="text-before-edge" transform="translate(0,-5.599999904632568)"><tspan x="0" y="0" dy="0" style="font-family: Arial, sans-serif; font-size: 10px; fill: black; font-weight: bold;">1</tspan></text></g></g></g><g id="East"><g id="circles"><circle id="1" cx="29.99666666666668" cy="275" r="5.25" style="fill: rgb(214, 39, 40);"/><circle id="1" cx="383.33333333333337" cy="275" r="5.25" style="fill: rgb(44, 160, 44);"/><circle id="1" cx="14.999999999999982" cy="275" r="5.25" style="fill: rgb(31, 119, 180);"/><circle id="1" cx="43.33333333333338" cy="275" r="5.25" style="fill: rgb(214, 39, 40);"/></g><g id="labels"><g id="1" transform="translate(29.99666666666668,275)"><text x="0" y="0" text-anchor="middle" dominant-baseline="text-before-edge" transform="translate(0,-5.599999904632568)"><tspan x="0" y="0" dy="0" style="font-family: Arial, sans-serif; font-size: 10px; fill: black; font-weight: bold;">1</tspan></text></g><g id="1" transform="translate(383.33333333333337,275)"><text x="0" y="0" text-anchor="middle" dominant-baseline="text-before-edge" transform="translate(0,-5.599999904632568)"><tspan x="0" y="0" dy="0" style="font-family: Arial, sans-serif; font-size: 10px; fill: black; font-weight: bold;">1</tspan></text></g><g id="1" transform="translate(14.999999999999982,275)"><text x="0" y="0" text-anchor="middle" dominant-baseline="text-before-edge" transform="translate(0,-5.599999904632568)"><tspan x="0" y="0" dy="0" style="font-family: Arial, sans-serif; font-size: 10px; fill: black; font-weight: bold;">1</tspan></text></g><g id="1" transform="translate(43.33333333333338,275)"><text x="0" y="0" text-anchor="middle" dominant-baseline="text-before-edge" transform="translate(0,-5.599999904632568)"><tspan x="0" y="0" dy="0" style="font-family: Arial, sans-serif; font-size: 10px; fill: black; font-weight: bold;">1</tspan></text></g></g></g><g id="South"><g id="circles"><circle id="2" cx="8.208333333333336" cy="385" r="5.25" style="fill: rgb(255, 127, 14);"/><circle id="1" cx="20.708333333333336" cy="385" r="5.25" style="fill: rgb(214, 39, 40);"/><circle id="1" cx="83.33333333333339" cy="385" r="5.25" style="fill: rgb(44, 160, 44);"/></g><g id="labels"><g id="2" transform="translate(8.208333333333336,385)"><text x="0" y="0" text-anchor="middle" dominant-baseline="text-before-edge" transform="translate(0,-5.599999904632568)"><tspan x="0" y="0" dy="0" style="font-family: Arial, sans-serif; font-size: 10px; fill: black; font-weight: bold;">2</tspan></text></g><g id="1" transform="translate(20.708333333333336,385)"><text x="0" y="0" text-anchor="middle" dominant-baseline="text-before-edge" transform="translate(0,-5.599999904632568)"><tspan x="0" y="0" dy="0" style="font-family: Arial, sans-serif; font-size: 10px; fill: black; font-weight: bold;">1</tspan></text></g><g id="1" transform="translate(83.33333333333339,385)"><text x="0" y="0" text-anchor="middle" dominant-baseline="text-before-edge" transform="translate(0,-5.599999904632568)"><tspan x="0" y="0" dy="0" style="font-family: Arial, sans-serif; font-size: 10px; fill: black; font-weight: bold;">1</tspan></text></g></g></g></g></g></svg>